<?xml version="1.0" standalone="no"?>
<!DOCTYPE svg PUBLIC "-//W3C//DTD SVG 20010904//EN"
 "http://www.w3.org/TR/2001/REC-SVG-20010904/DTD/svg10.dtd">
<svg version="1.0" xmlns="http://www.w3.org/2000/svg"
 width="664.000000pt" height="664.000000pt" viewBox="0 0 664.000000 664.000000"
 preserveAspectRatio="xMidYMid meet">

<g transform="translate(0.000000,664.000000) scale(0.100000,-0.100000)"
fill="#000000" stroke="none">
<path d="M2985 6255 c-251 -28 -429 -69 -673 -154 -431 -151 -806 -386 -1131
-710 -492 -489 -803 -1141 -872 -1826 -15 -154 -15 -457 0 -610 39 -378 132
-695 309 -1048 143 -287 330 -547 556 -772 573 -573 1324 -886 2126 -886 544
0 1059 137 1519 405 444 259 842 655 1094 1091 143 248 275 583 332 840 58
262 69 368 70 670 0 308 -15 447 -75 700 -132 556 -418 1059 -831 1460 -504
490 -1123 776 -1823 844 -142 14 -461 12 -601 -4z m439 -410 c59 -79 112 -147
117 -151 10 -6 170 129 244 205 21 23 44 41 50 41 6 0 48 -76 93 -170 45 -93
88 -170 94 -170 7 0 80 41 162 90 82 50 155 90 162 90 13 0 23 -30 75 -230 17
-69 35 -128 38 -132 3 -4 80 20 171 52 91 33 173 60 182 60 23 0 26 -14 33
-208 4 -95 10 -174 14 -176 6 -3 305 38 347 49 32 7 44 -14 34 -60 -5 -22 -16
-96 -25 -164 -9 -69 -19 -129 -21 -133 -3 -5 -1 -15 5 -22 8 -9 61 -15 189
-20 97 -4 181 -12 187 -17 10 -10 -5 -61 -70 -234 -21 -55 -38 -109 -39 -119
-1 -16 23 -25 179 -65 125 -32 181 -51 182 -61 2 -8 -40 -85 -91 -170 -52 -85
-92 -158 -90 -162 5 -7 125 -66 272 -134 39 -18 72 -36 72 -40 0 -7 -198 -231
-229 -258 -11 -11 -21 -25 -21 -31 0 -7 68 -64 150 -126 83 -62 149 -117 147
-123 -2 -6 -37 -36 -79 -66 -182 -134 -218 -162 -218 -173 0 -7 17 -30 38 -52
20 -22 69 -76 107 -120 39 -44 76 -84 83 -88 27 -18 9 -39 -61 -72 -41 -19
-76 -35 -79 -35 -3 0 -19 21 -36 48 -23 37 -29 55 -25 85 8 58 -16 126 -61
175 -32 35 -40 50 -38 77 3 41 -32 139 -67 185 -20 28 -27 51 -32 113 -6 61
-15 94 -43 151 -32 65 -36 79 -34 147 2 68 -1 79 -31 129 -33 54 -33 55 -16
87 13 23 15 36 7 45 -5 7 -10 29 -9 50 1 24 -8 49 -25 75 -15 21 -54 92 -88
157 -33 66 -86 154 -117 195 -74 100 -247 269 -309 303 -125 68 -325 90 -421
46 l-48 -22 40 -3 c22 -2 51 -6 65 -9 25 -6 24 -6 -10 -22 -40 -19 -53 -52
-21 -52 28 0 36 -19 15 -34 -10 -8 -15 -20 -11 -29 8 -21 -10 -33 -58 -40 -53
-8 -75 5 -45 26 27 19 20 32 -20 40 -25 6 -30 11 -30 37 0 16 -5 30 -11 30 -6
0 -8 9 -4 20 5 15 2 20 -14 20 -27 0 -51 -10 -51 -22 0 -5 6 -8 13 -7 29 4 39
-1 29 -13 -22 -28 -31 -90 -20 -142 5 -28 13 -69 17 -91 4 -22 15 -54 24 -71
14 -27 23 -32 69 -39 29 -4 66 -7 81 -7 43 2 126 -44 177 -98 25 -26 67 -86
94 -134 27 -47 50 -86 51 -86 7 0 -19 78 -38 115 -26 52 -77 120 -124 167 -21
20 -34 40 -30 44 4 4 64 -9 134 -30 119 -35 193 -72 193 -97 0 -6 16 -31 36
-57 33 -44 119 -102 150 -102 17 0 64 -72 64 -97 0 -10 11 -35 25 -55 13 -20
29 -56 35 -80 5 -24 14 -61 19 -83 7 -31 9 -34 10 -14 1 15 7 32 15 38 7 6 11
22 9 35 -3 13 0 27 6 30 7 5 11 -4 11 -23 0 -45 30 -38 49 12 16 41 31 32 33
-20 1 -27 2 -58 2 -70 1 -11 4 -25 9 -29 12 -12 8 -44 -6 -44 -7 0 -19 6 -26
13 -11 10 -11 8 -1 -13 7 -14 19 -33 27 -42 9 -10 13 -25 9 -33 -12 -33 6 -94
42 -136 28 -32 37 -54 43 -97 4 -31 6 -58 4 -61 -9 -8 -45 32 -45 49 0 9 -11
27 -25 40 -19 18 -28 21 -37 12 -9 -9 -16 -8 -29 4 -24 22 -34 0 -13 -31 19
-29 29 -32 38 -10 8 22 34 18 42 -7 5 -16 1 -26 -15 -36 -24 -17 -28 -32 -7
-32 12 0 14 -13 9 -68 -4 -52 -2 -75 11 -100 9 -17 16 -40 16 -52 0 -11 4 -20
10 -20 5 0 17 -11 26 -25 14 -21 15 -31 6 -50 -7 -14 -18 -25 -27 -25 -18 0
-19 -23 -2 -50 10 -17 9 -22 -2 -29 -10 -7 -19 0 -33 27 -23 45 -22 50 1 70
14 13 18 26 14 55 -5 33 -8 37 -34 37 -27 0 -29 -2 -23 -27 4 -16 11 -34 17
-40 13 -18 1 -17 -69 6 -37 13 -63 16 -70 10 -17 -14 -47 25 -39 50 4 15 2 21
-9 21 -20 0 -30 -18 -33 -60 -5 -74 -23 -177 -39 -217 -18 -49 -12 -68 17 -53
15 9 19 7 19 -5 0 -9 -8 -18 -17 -21 -10 -3 -26 -10 -35 -15 -35 -18 -58 -11
-64 21 -4 16 -11 27 -16 24 -5 -3 -7 -12 -4 -20 7 -19 -44 -19 -90 1 -26 11
-34 19 -30 31 15 39 16 60 3 78 -14 19 -15 19 -31 -12 -9 -17 -16 -38 -16 -47
0 -11 -6 -14 -25 -9 -15 4 -30 1 -40 -9 -8 -8 -20 -17 -27 -20 -10 -3 -10 -9
-2 -23 12 -21 44 -32 44 -15 0 6 9 20 20 31 18 18 21 18 27 5 3 -9 1 -28 -6
-41 -8 -19 -16 -24 -32 -19 -18 6 -19 4 -10 -12 5 -11 17 -25 25 -33 9 -7 16
-20 16 -30 0 -9 12 -30 28 -47 15 -16 32 -38 39 -49 11 -18 12 -18 12 5 1 13
-12 43 -29 68 -34 50 -36 61 -15 69 8 4 15 15 15 25 0 20 8 23 34 13 23 -9 20
-34 -4 -34 -13 0 -20 -7 -20 -20 0 -27 18 -25 46 5 26 28 74 34 74 10 0 -15
11 -19 39 -15 8 1 17 -3 20 -9 9 -15 81 -2 81 15 0 7 -8 17 -17 23 -16 8 -15
11 10 20 42 16 74 59 94 129 10 34 22 60 28 58 12 -4 7 -80 -6 -84 -5 -2 -9
-11 -9 -19 0 -8 -14 -35 -30 -60 -35 -52 -34 -62 5 -37 63 41 111 204 65 219
-23 7 -50 32 -50 46 0 13 51 0 72 -18 24 -21 46 -96 36 -122 -5 -13 -3 -31 3
-43 10 -19 12 -19 40 13 16 19 27 42 25 52 -2 9 -1 17 3 17 16 0 46 -43 43
-61 -2 -14 3 -19 17 -19 25 0 27 -17 4 -42 -17 -19 -16 -21 19 -51 32 -28 36
-38 36 -75 0 -24 4 -48 11 -55 6 -6 11 -26 11 -44 0 -34 14 -44 24 -17 3 8 10
12 16 9 6 -4 4 -17 -6 -36 -11 -23 -13 -37 -5 -62 5 -18 14 -47 18 -66 10 -40
24 -48 46 -26 18 17 37 20 37 5 0 -5 -4 -10 -9 -10 -6 0 -16 -12 -23 -28 -10
-19 -20 -26 -37 -24 -12 1 -29 -5 -37 -13 -9 -8 -26 -15 -38 -15 -28 0 -128
-29 -140 -40 -5 -5 -2 -23 8 -43 9 -19 16 -39 16 -44 0 -5 9 -27 20 -48 l20
-40 -20 -15 c-23 -17 -17 -30 12 -30 20 0 50 -56 62 -116 l7 -31 -58 -6 c-32
-4 -115 -9 -185 -13 -69 -4 -131 -10 -137 -13 -7 -5 -6 -36 4 -101 7 -52 15
-133 17 -180 l3 -85 -25 2 c-14 1 -70 4 -125 7 -122 5 -135 10 -135 46 0 16
-4 32 -10 35 -5 3 -10 18 -10 32 0 25 1 25 18 10 23 -21 42 -22 42 -2 0 8 -18
27 -40 41 -30 20 -41 35 -46 63 -6 32 -41 114 -93 219 -18 36 -91 113 -91 95
0 -6 11 -24 24 -40 76 -92 112 -205 119 -376 1 -24 9 -44 20 -51 25 -19 21
-33 -12 -44 l-30 -11 -6 57 c-3 31 -11 75 -16 97 -6 22 -10 60 -9 85 2 85 -21
157 -64 202 -39 39 -40 40 -48 18 -5 -15 -13 -20 -24 -16 -43 17 -64 18 -64 4
0 -8 7 -23 15 -34 19 -25 19 -50 -2 -115 -21 -68 -28 -77 -42 -50 -8 15 -9 27
-1 40 16 30 13 84 -4 78 -9 -3 -21 4 -30 19 -18 27 -46 32 -46 8 0 -8 -5 -25
-12 -37 l-12 -22 -6 24 c-8 36 -27 36 -45 2 -8 -17 -22 -31 -29 -31 -8 0 -31
-26 -52 -57 -36 -54 -38 -56 -48 -34 -6 14 -6 27 0 36 5 7 29 38 53 69 29 37
41 60 34 67 -6 6 -18 3 -35 -11 -15 -11 -37 -20 -51 -20 -54 0 -198 -126 -379
-332 -53 -59 -92 -98 -101 -98 -5 0 -5 -9 -2 -20 9 -27 -24 -41 -39 -16 -6 10
-19 27 -29 39 -18 21 -18 22 -1 32 10 5 32 25 49 43 91 100 140 147 233 223
57 46 126 99 153 117 27 18 49 37 49 42 0 26 -93 -6 -104 -36 -3 -8 -20 -22
-38 -30 -18 -8 -41 -20 -50 -26 -14 -10 -21 -8 -38 7 -22 20 -22 20 -38 0 -10
-11 -29 -28 -44 -37 -16 -11 -28 -29 -30 -45 -2 -14 -9 -29 -17 -31 -10 -3
-12 0 -8 12 4 10 1 16 -9 16 -22 0 -28 -27 -10 -45 16 -16 23 -65 9 -65 -3 0
-19 15 -34 32 l-28 33 -7 -32 c-5 -26 -12 -33 -30 -33 -13 0 -24 -4 -24 -8 0
-5 -21 -30 -46 -56 -48 -51 -53 -83 -11 -72 32 8 54 -8 39 -27 -10 -12 -9 -16
3 -21 20 -7 20 -46 -1 -46 -9 0 -35 21 -58 46 -38 42 -44 46 -64 35 -12 -6
-22 -19 -22 -28 0 -13 -5 -12 -25 7 -20 18 -28 21 -37 12 -15 -15 -48 -16 -48
-2 0 6 7 10 15 10 8 0 15 7 15 15 0 8 -5 15 -12 15 -6 0 -22 10 -36 22 -23 23
-24 23 -38 3 -13 -17 -13 -21 2 -32 9 -7 22 -14 28 -16 6 -3 3 -11 -8 -20 -19
-14 -19 -15 15 -33 95 -51 261 -104 324 -104 43 0 54 -17 19 -30 -25 -10 -54
-5 -119 21 -11 4 -54 17 -95 29 -91 27 -138 50 -203 101 -66 53 -75 39 -12
-18 126 -112 233 -151 516 -188 118 -16 182 -37 217 -71 18 -18 40 -25 94 -30
62 -6 76 -12 128 -50 32 -24 61 -44 64 -44 13 0 -17 44 -46 68 -33 28 -62 78
-49 86 5 3 48 9 96 12 l88 7 -7 -33 c-3 -19 -14 -45 -22 -59 -9 -13 -17 -42
-18 -63 -1 -21 -7 -43 -13 -49 -17 -17 -74 6 -108 41 -26 27 -55 40 -55 24 0
-3 7 -20 16 -37 10 -18 23 -44 31 -60 16 -31 9 -54 -12 -37 -8 7 -28 40 -45
75 -28 57 -45 75 -71 75 -5 0 -9 -8 -9 -18 0 -10 -12 -29 -26 -43 l-26 -24 7
32 c5 27 3 33 -10 33 -8 0 -18 -7 -21 -15 -4 -10 -17 -14 -38 -12 -26 2 -31
-2 -31 -20 0 -33 -11 -36 -30 -7 -17 26 -17 27 6 46 33 25 67 33 84 18 12 -10
16 -9 21 4 7 19 -12 46 -32 46 -8 0 -38 -12 -67 -27 -28 -16 -74 -35 -102 -43
-45 -14 -53 -21 -79 -70 -16 -30 -33 -57 -38 -58 -4 -2 -27 -19 -49 -38 -23
-19 -44 -34 -47 -34 -4 0 -29 21 -55 45 -50 47 -71 55 -81 30 -13 -35 -90
-125 -106 -125 -10 0 -31 -7 -46 -15 -16 -8 -37 -15 -48 -15 -10 0 -36 -5 -57
-12 -48 -14 -53 -10 -135 103 -32 43 -62 79 -66 79 -5 0 -59 -45 -119 -100
-61 -56 -122 -108 -134 -116 -32 -21 -59 -6 -86 49 -21 40 -21 43 -5 92 9 27
15 73 15 100 -1 28 0 100 1 160 2 61 0 120 -3 131 -5 14 1 43 17 80 14 33 29
90 35 128 6 37 17 76 26 85 19 22 20 51 1 51 -8 0 -21 -8 -28 -17 -13 -19 -42
-35 -91 -53 -15 -5 -30 -18 -34 -27 -9 -25 -55 -72 -71 -73 -15 0 -52 -36 -52
-50 0 -6 27 9 61 32 171 121 198 127 143 32 -14 -24 -30 -44 -35 -44 -12 0
-32 -15 -73 -56 -17 -17 -39 -34 -48 -37 -10 -4 -18 -13 -18 -21 0 -9 -21 -25
-46 -36 -33 -15 -44 -26 -40 -36 3 -9 6 -22 6 -30 0 -28 34 -11 140 74 32 26
73 26 78 1 2 -10 -15 -25 -50 -42 -63 -33 -170 -109 -176 -125 -6 -20 25 -13
83 18 30 16 55 27 55 24 0 -19 -48 -67 -97 -99 -32 -21 -84 -55 -116 -77 -39
-27 -63 -37 -77 -33 -14 4 -20 2 -20 -8 0 -8 -8 -25 -19 -38 -16 -20 -21 -21
-35 -10 -20 17 -21 45 -1 61 11 9 12 16 5 25 -6 7 -8 20 -4 29 4 10 0 18 -11
22 -20 8 -62 97 -71 151 -11 69 -11 69 -125 28 -57 -20 -125 -45 -150 -56 -26
-10 -62 -20 -80 -21 l-34 -3 -5 68 c-3 38 -3 72 0 76 14 21 55 32 94 27 44 -7
76 0 76 15 0 5 -19 9 -42 9 -24 0 -60 3 -80 6 -43 7 -53 27 -64 116 -7 67 -2
65 -131 47 -74 -10 -78 -10 -95 11 -14 18 -18 19 -18 6 0 -29 -29 -30 -51 -2
-11 14 -32 31 -47 38 -30 14 -38 47 -27 105 5 29 10 33 35 33 25 0 30 4 30 23
0 13 -9 32 -20 42 -14 13 -20 29 -18 52 1 18 -2 37 -7 41 -22 18 -104 32 -130
22 -57 -22 -115 -1 -115 40 0 22 -26 45 -34 31 -4 -6 -4 -21 -1 -34 5 -20 2
-26 -17 -31 -32 -8 -61 -7 -77 3 -17 11 -16 11 68 205 11 27 21 59 21 73 0 13
7 38 16 55 12 23 13 32 4 38 -6 4 -17 18 -23 31 -8 15 -25 26 -50 31 -21 4
-51 15 -68 23 -29 16 -30 16 -23 -10 7 -28 -7 -33 -26 -10 -8 10 -25 15 -43
13 -42 -4 -47 20 -8 35 17 6 31 15 31 19 0 13 -81 47 -97 41 -22 -9 -9 31 28
85 16 23 29 47 29 52 0 4 10 21 23 37 29 35 51 88 44 107 -3 8 4 23 16 34 25
23 100 62 119 62 7 0 38 12 68 26 68 31 214 53 241 36 10 -7 29 -12 41 -12 49
0 136 -59 151 -103 2 -7 18 0 41 21 28 24 46 32 79 33 23 1 80 3 126 5 54 2
89 0 98 -8 8 -6 26 -12 41 -13 15 -2 35 -6 44 -10 27 -11 22 17 -7 38 -14 10
-39 17 -57 17 -18 0 -95 2 -170 5 -87 4 -144 2 -157 -4 -14 -8 -22 -7 -30 3
-6 7 -40 16 -75 19 -35 3 -85 16 -110 28 -30 13 -55 19 -71 15 -29 -7 -58 5
-98 42 l-27 26 0 -30 c-1 -24 -9 -34 -47 -57 -42 -26 -47 -27 -69 -12 -30 19
-31 19 -37 -5 -4 -16 -11 -19 -36 -14 -26 5 -31 3 -31 -12 -1 -27 -67 -74
-104 -74 -33 0 -27 12 15 34 37 18 33 33 -8 31 -34 -1 -39 -4 -43 -30 -3 -16
-12 -31 -21 -33 -20 -4 -209 88 -216 104 -2 7 18 37 45 66 135 145 202 222
200 228 -4 9 -252 196 -279 211 -31 16 -22 43 29 76 40 27 239 177 251 189 5
4 -107 133 -192 221 -34 34 -58 67 -55 75 3 7 80 49 172 93 91 44 166 83 166
88 0 4 -17 36 -38 70 -22 34 -60 98 -86 142 -26 44 -52 88 -59 97 -6 9 -8 20
-5 24 4 3 89 28 189 55 100 26 183 50 185 51 1 2 -26 82 -62 177 -36 96 -63
179 -60 186 4 12 171 25 313 25 44 0 65 4 69 13 3 8 -7 94 -21 191 -16 108
-23 182 -17 188 5 5 26 5 53 -1 24 -5 99 -17 167 -26 67 -9 128 -18 136 -21 8
-3 17 0 21 6 7 11 8 24 20 248 6 112 10 132 24 132 16 0 238 -76 314 -108 20
-8 39 -13 42 -10 4 4 20 62 78 286 13 51 26 82 34 82 8 0 81 -40 163 -90 82
-49 155 -90 162 -90 7 0 49 75 93 166 43 91 83 168 87 170 8 5 97 -71 232
-198 28 -26 56 -48 61 -48 6 0 46 48 89 108 104 141 146 192 155 192 4 0 56
-65 115 -145z m1146 -1415 c0 -5 -16 -10 -35 -10 -19 0 -35 5 -35 10 0 6 16
10 35 10 19 0 35 -4 35 -10z m1127 -2166 c-3 -3 -12 -4 -19 -1 -8 3 -5 6 6 6
11 1 17 -2 13 -5z m-972 -506 c24 -102 22 -158 -11 -308 -8 -36 -14 -73 -14
-83 0 -11 -6 -17 -12 -15 -14 5 -20 87 -8 103 4 6 8 30 9 55 0 25 3 83 6 129
3 54 1 89 -6 98 -6 7 -9 20 -5 28 8 23 35 18 41 -7z m-155 -197 c0 -6 -4 -13
-10 -16 -5 -3 -10 1 -10 9 0 9 5 16 10 16 6 0 10 -4 10 -9z m-328 -20 c16 -19
16 -20 -3 -26 -10 -4 -19 -11 -19 -16 0 -5 -16 -26 -36 -46 -20 -21 -48 -61
-62 -90 -15 -29 -43 -62 -62 -76 -27 -18 -35 -30 -33 -50 1 -15 -2 -27 -8 -27
-5 0 -9 7 -9 15 0 22 -28 18 -42 -5 -7 -11 -16 -20 -20 -20 -14 0 -9 33 7 49
8 9 28 30 45 48 16 17 30 39 30 48 0 9 19 36 43 60 23 23 65 68 92 98 28 31
52 56 55 56 3 1 13 -8 22 -18z m-472 -85 c0 -16 -14 -36 -26 -36 -14 0 -19 22
-7 33 7 8 33 10 33 3z m-2372 -88 c19 -19 15 -48 -7 -48 -21 0 -33 22 -25 45
7 18 16 19 32 3z m3423 -114 c9 -11 6 -14 -17 -14 -16 0 -39 -3 -51 -6 -26 -7
-30 7 -9 29 17 17 60 12 77 -9z m-928 -11 c10 -10 -13 -33 -33 -33 -24 0 -34
27 -12 33 27 7 38 7 45 0z m893 -58 c-21 -16 -32 -13 -21 4 3 6 14 11 23 11
15 -1 15 -2 -2 -15z m-71 -55 c-18 -18 -39 -30 -55 -30 -14 0 -31 -5 -37 -11
-13 -13 -63 -8 -66 6 -1 6 24 15 57 22 32 6 66 18 74 27 9 9 25 16 36 16 18 0
17 -3 -9 -30z m115 -54 c0 -85 -5 -90 -68 -67 -41 15 -43 18 -38 46 6 32 66
95 91 95 12 0 15 -15 15 -74z m-2146 -31 c-6 -16 -34 -21 -34 -7 0 13 11 22
26 22 8 0 11 -6 8 -15z m1196 -174 c0 -6 -4 -13 -10 -16 -23 -14 -9 -35 24
-35 61 0 62 -18 11 -114 -46 -85 -82 -116 -69 -58 l7 27 -22 -22 c-26 -28 -43
-29 -63 -5 -31 36 -31 42 2 36 24 -5 30 -3 30 10 0 9 -6 19 -14 22 -18 7 -30
35 -14 31 6 -1 14 12 18 28 9 41 39 85 64 95 28 12 36 12 36 1z m488 -62 c4
-36 -29 -64 -57 -49 -27 14 -27 26 0 33 11 3 23 15 26 27 7 27 27 20 31 -11z
m-1038 -243 c0 -8 -5 -18 -11 -22 -14 -8 -33 11 -25 25 10 16 36 13 36 -3z"/>
<path d="M3330 5266 c-147 -52 -210 -80 -210 -93 0 -7 27 -78 60 -158 33 -80
60 -148 60 -150 0 -3 26 -72 58 -153 32 -81 66 -168 76 -194 10 -27 23 -48 30
-48 14 0 275 104 327 131 60 30 82 66 76 119 -8 63 -63 199 -95 233 -20 21
-35 27 -69 27 -50 0 -56 15 -18 50 15 14 25 35 25 51 0 44 -39 135 -73 169
-60 61 -110 64 -247 16z m86 -121 c12 -8 32 -39 44 -70 22 -53 22 -56 5 -75
-32 -36 -50 -25 -78 48 -30 75 -33 98 -14 105 19 8 21 8 43 -8z m145 -331 c44
-97 47 -119 15 -139 -15 -10 -30 -15 -34 -11 -4 4 -23 49 -43 99 -39 98 -38
117 8 117 20 0 29 -11 54 -66z"/>
<path d="M2838 5077 c-43 -17 -78 -36 -78 -43 0 -17 65 -261 95 -357 14 -43
25 -88 25 -100 0 -22 -1 -22 -20 3 -11 14 -23 34 -26 45 -19 58 -175 366 -189
371 -8 4 -21 2 -28 -3 -6 -5 -41 -20 -77 -33 -36 -13 -70 -28 -77 -34 -8 -8
-2 -47 26 -156 21 -80 47 -174 59 -209 24 -72 28 -106 11 -95 -7 4 -56 99
-110 210 -54 112 -102 204 -106 204 -4 0 -45 -15 -90 -32 -80 -32 -97 -49 -74
-73 9 -11 154 -273 234 -425 90 -172 118 -220 127 -220 5 0 33 11 62 23 30 13
77 32 106 41 30 10 56 24 58 31 3 7 -13 87 -35 178 -23 91 -41 170 -41 176 0
25 21 8 44 -36 27 -54 122 -216 148 -252 16 -23 18 -23 50 -8 18 8 71 30 116
47 79 30 84 34 79 59 -6 38 -178 705 -184 714 -7 11 -21 7 -105 -26z"/>
<path d="M3902 4826 c-28 -13 -54 -25 -57 -27 -5 -6 39 -117 52 -130 8 -8 115
30 132 47 2 2 -5 23 -16 46 -11 24 -24 53 -27 66 -9 26 -16 26 -84 -2z"/>
<path d="M1848 4689 c-43 -17 -78 -36 -78 -42 0 -7 20 -62 45 -122 50 -123 52
-130 29 -139 -40 -15 -51 -6 -79 67 -15 39 -38 95 -51 123 l-22 52 -91 -36
c-50 -19 -91 -41 -91 -48 0 -8 12 -39 26 -71 14 -32 41 -101 61 -153 61 -164
184 -465 193 -474 11 -11 170 53 177 71 3 7 -20 74 -51 149 -59 144 -60 164
-11 164 23 0 26 -6 102 -200 38 -96 36 -95 128 -59 44 18 84 35 88 39 9 8 -12
64 -175 478 -66 165 -97 232 -108 231 -8 0 -50 -14 -92 -30z"/>
<path d="M4130 4616 c-73 -38 -121 -81 -181 -162 -50 -68 -117 -196 -125 -241
-7 -35 -22 -41 -53 -21 -15 9 -23 9 -35 -1 -24 -20 -19 -31 13 -31 17 0 32 -4
35 -8 3 -5 7 -83 10 -173 2 -90 14 -231 26 -312 21 -144 21 -149 3 -163 -17
-13 -17 -15 5 -32 20 -15 23 -26 20 -67 l-3 -49 -54 3 c-46 2 -65 -3 -125 -34
-93 -48 -134 -81 -120 -95 6 -6 27 -10 45 -8 26 2 35 8 37 25 3 17 12 24 40
29 20 4 69 22 108 40 58 26 73 30 78 18 9 -23 -5 -44 -29 -44 -27 0 -41 -17
-37 -42 3 -14 -4 -18 -30 -18 -40 0 -78 -10 -78 -19 0 -4 14 -17 30 -29 29
-22 32 -22 79 -8 27 8 59 19 70 26 17 9 22 8 28 -6 9 -24 -10 -49 -38 -50 -78
-4 -79 -4 -79 -24 0 -20 13 -25 54 -20 63 6 95 -42 35 -54 -19 -4 -38 -1 -47
6 -12 10 -18 8 -33 -11 -24 -29 -24 -41 0 -41 10 0 24 -7 31 -15 27 -32 91
-12 182 58 52 39 66 44 147 56 78 11 93 11 112 -2 12 -9 27 -13 34 -11 7 3 32
-4 55 -16 53 -27 63 -18 23 22 -23 23 -45 33 -84 39 -63 10 -81 29 -105 109
-20 67 -75 182 -114 235 -35 48 -66 138 -75 218 -7 59 3 75 23 35 8 -18 11 5
11 103 1 175 40 299 93 299 13 0 49 26 87 63 36 35 72 66 79 68 11 4 12 15 3
59 -16 76 -18 88 -33 149 l-13 53 -19 -21 c-29 -32 -49 -28 -41 8 3 17 2 32
-4 36 -17 10 -13 22 19 58 26 30 30 48 11 47 -3 -1 -35 -16 -71 -34z"/>
<path d="M4221 4572 c-20 -29 -19 -42 5 -42 12 0 30 57 21 66 -3 3 -14 -8 -26
-24z"/>
<path d="M3256 4572 c-3 -5 -23 -15 -46 -22 -61 -20 -64 -29 -30 -98 16 -34
31 -62 32 -62 14 0 123 51 123 57 0 13 -38 107 -48 121 -11 14 -24 16 -31 4z"/>
<path d="M2330 4210 c-8 -5 -32 -16 -52 -24 -21 -8 -38 -22 -38 -30 0 -15 46
-126 52 -126 7 0 119 48 125 53 9 9 -48 137 -61 136 -6 0 -18 -4 -26 -9z"/>
<path d="M3603 4168 c-36 -17 -27 -24 32 -25 56 -1 64 4 43 25 -15 15 -45 14
-75 0z"/>
<path d="M3339 4022 c-28 -19 -24 -34 6 -20 19 9 31 8 49 -1 29 -16 61 -11 61
9 0 21 -89 31 -116 12z"/>
<path d="M3480 4021 c-14 -26 -13 -29 9 -41 39 -20 69 18 39 48 -18 18 -36 15
-48 -7z"/>
<path d="M3128 3927 c-30 -15 -38 -24 -38 -45 1 -48 33 -91 90 -121 60 -32 76
-50 67 -75 -10 -25 -22 -19 -58 29 -19 24 -39 45 -45 45 -6 0 -17 7 -24 15 -7
8 -24 15 -37 15 -23 0 -25 3 -20 29 5 24 2 31 -13 36 -11 4 -20 11 -20 16 0 5
-13 9 -30 9 -37 0 -38 -12 -4 -35 57 -37 -16 -35 -83 3 -25 14 -105 14 -181 0
-47 -9 -54 -13 -68 -46 -24 -55 -44 -155 -33 -167 5 -5 9 -20 9 -33 0 -19 4
-22 19 -17 23 7 122 -53 158 -96 13 -15 37 -29 58 -32 41 -7 145 -51 200 -86
22 -14 72 -37 110 -52 54 -20 71 -30 73 -47 4 -27 -8 -28 -34 -4 -31 28 -113
67 -194 91 -41 12 -88 27 -105 32 -16 6 -52 18 -80 27 -27 9 -55 23 -61 30 -9
12 -15 12 -43 -3 -36 -18 -51 -14 -31 10 11 13 9 15 -13 15 -14 0 -29 5 -32
10 -10 16 -47 12 -60 -6 -9 -13 -16 -14 -33 -5 -11 6 -26 11 -33 11 -28 0 22
-34 103 -70 102 -45 113 -68 45 -94 -37 -14 -55 -15 -118 -6 -40 6 -84 18 -97
28 -57 40 -78 52 -94 52 -11 0 -18 8 -18 19 0 26 -14 34 -50 26 -23 -5 -30
-12 -30 -31 0 -28 34 -46 70 -37 16 4 21 3 16 -5 -4 -7 -21 -12 -38 -12 -28 0
-30 -2 -25 -29 6 -27 4 -30 -21 -28 -24 2 -27 -1 -28 -33 -1 -19 3 -41 8 -47
16 -20 38 -15 38 8 0 14 5 19 18 17 11 -2 26 3 35 10 29 24 29 -7 0 -32 -38
-33 -21 -50 54 -52 42 -1 73 5 122 26 50 22 77 27 106 23 22 -2 91 0 154 6 63
6 117 9 119 6 2 -2 -3 -11 -12 -20 -9 -9 -16 -23 -16 -31 0 -7 -12 -17 -26
-20 -39 -10 -162 2 -218 21 -46 16 -49 16 -70 -4 -28 -27 -88 -51 -126 -51
-39 0 -38 -14 8 -69 20 -25 50 -63 65 -83 27 -37 29 -38 56 -23 19 9 38 11 57
6 28 -8 127 13 197 41 23 9 31 8 37 -2 7 -11 16 -11 48 -2 22 7 69 12 105 12
56 0 69 -4 96 -27 17 -15 31 -32 31 -38 0 -5 17 -35 38 -65 20 -30 43 -67 49
-82 7 -16 17 -28 22 -28 6 0 26 -14 46 -31 52 -46 54 -28 4 37 -24 30 -57 76
-74 101 -27 42 -28 47 -15 70 27 47 63 66 128 67 42 1 66 6 79 19 11 9 28 17
39 17 54 0 92 21 123 68 36 56 27 78 -18 44 -76 -56 -161 -69 -161 -24 0 33
-39 82 -70 89 -24 4 -28 8 -19 19 6 8 22 14 36 14 13 0 33 5 44 11 11 5 37 11
59 12 22 1 42 7 44 14 3 7 24 22 48 34 52 26 78 48 78 66 0 20 -22 16 -74 -13
-36 -20 -55 -25 -80 -20 -28 5 -34 3 -32 -10 0 -9 -5 -19 -11 -21 -8 -3 -13 4
-13 15 0 35 -73 132 -122 162 -56 34 -87 75 -70 92 8 8 22 4 52 -17 22 -15 40
-32 40 -36 0 -5 8 -9 19 -9 16 0 18 9 18 95 0 90 -2 97 -25 115 -13 11 -39 22
-58 26 -20 4 -44 18 -58 35 -14 16 -32 29 -41 29 -13 0 -15 7 -9 38 4 20 11
39 15 40 11 4 12 29 2 34 -5 2 -25 -4 -45 -15z m-238 -137 c8 -5 11 -10 5 -10
-5 0 -17 5 -25 10 -8 5 -10 10 -5 10 6 0 17 -5 25 -10z m420 -160 c0 -12 -28
-25 -36 -17 -9 9 6 27 22 27 8 0 14 -5 14 -10z m-461 -272 c96 -30 121 -42
121 -54 0 -17 -24 -18 -53 -2 -12 6 -47 17 -77 23 -38 7 -56 16 -58 28 -4 20
16 22 67 5z m246 -88 c29 -11 31 -17 9 -41 -15 -17 -18 -16 -50 15 -19 18 -34
36 -34 41 0 8 32 1 75 -15z m-665 -50 c0 -5 -5 -10 -11 -10 -5 0 -7 5 -4 10 3
6 8 10 11 10 2 0 4 -4 4 -10z m538 -21 c3 -14 -26 -55 -33 -47 -1 2 -5 18 -8
36 -6 30 -5 33 16 30 12 -2 23 -10 25 -19z m332 -11 c0 -12 12 -32 28 -45 21
-18 23 -22 10 -23 -10 0 -27 9 -38 20 -11 11 -25 20 -31 20 -6 0 -13 -9 -16
-20 -4 -16 -14 -20 -44 -20 -44 0 -48 -10 -18 -48 l21 -27 -26 -3 c-27 -3 -34
-20 -15 -39 12 -12 6 -43 -9 -43 -4 0 -15 16 -22 36 -8 20 -27 47 -43 60 -24
20 -35 23 -70 18 -23 -4 -61 -15 -84 -25 -48 -20 -49 -20 -27 23 9 17 13 39
11 50 -5 19 -5 19 13 3 16 -15 26 -15 70 -6 28 6 68 11 90 11 30 0 43 6 64 30
29 35 58 48 104 49 27 1 32 -3 32 -21z m-177 -8 c6 0 1 -7 -11 -16 -12 -8 -26
-13 -32 -9 -14 9 1 37 17 31 8 -3 20 -6 26 -6z"/>
<path d="M4815 3927 c-6 -11 -38 -35 -73 -53 -64 -32 -102 -60 -102 -76 0 -16
34 -7 97 27 36 19 74 35 85 35 11 0 28 10 38 23 16 19 28 22 89 22 38 1 73 4
76 7 16 16 -39 28 -102 24 -36 -3 -74 -1 -83 4 -12 6 -18 3 -25 -13z"/>
<path d="M4834 3839 c-3 -5 -23 -14 -45 -21 -43 -12 -109 -78 -109 -109 0 -28
24 -40 70 -33 61 10 90 50 59 81 -18 18 -1 34 34 33 18 -1 45 2 61 6 27 6 29
5 24 -20 -7 -33 4 -33 50 1 49 37 55 47 31 55 -29 11 -169 16 -175 7z"/>
<path d="M3432 3829 c2 -7 10 -15 17 -17 8 -3 12 1 9 9 -2 7 -10 15 -17 17 -8
3 -12 -1 -9 -9z"/>
<path d="M3500 3820 c0 -5 7 -10 15 -10 8 0 15 5 15 10 0 6 -7 10 -15 10 -8 0
-15 -4 -15 -10z"/>
<path d="M3240 3806 c0 -2 7 -7 16 -10 8 -3 12 -2 9 4 -6 10 -25 14 -25 6z"/>
<path d="M3570 3800 c0 -5 5 -10 10 -10 6 0 10 5 10 10 0 6 -4 10 -10 10 -5 0
-10 -4 -10 -10z"/>
<path d="M3392 3762 c4 -20 61 -28 98 -13 25 10 25 10 -5 10 -17 1 -45 5 -63
10 -29 9 -33 8 -30 -7z"/>
<path d="M4871 3726 c-8 -10 -9 -16 -1 -21 5 -3 13 1 16 10 9 22 -1 29 -15 11z"/>
<path d="M4240 3693 c-51 -8 -151 -36 -156 -45 -3 -4 -14 -8 -24 -8 -23 0 -38
-46 -22 -62 8 -8 16 -5 29 10 21 25 123 61 207 72 65 10 78 17 56 30 -15 10
-44 11 -90 3z"/>
<path d="M3476 3642 c-10 -17 23 -44 42 -33 10 6 23 4 36 -4 25 -16 66 -3 66
20 0 10 -10 15 -32 15 -18 0 -49 3 -69 6 -21 4 -39 2 -43 -4z"/>
<path d="M3385 3631 c-3 -5 -1 -12 5 -16 12 -7 30 2 30 16 0 12 -27 12 -35 0z"/>
<path d="M4260 3624 c-108 -29 -171 -72 -156 -109 5 -14 114 -30 144 -21 15 5
19 15 18 49 l-1 42 53 3 c47 3 54 1 59 -17 6 -25 44 -28 63 -6 22 27 -13 51
-100 68 -14 3 -50 -1 -80 -9z"/>
<path d="M5290 3598 c0 -57 14 -101 32 -106 14 -3 18 -14 18 -53 0 -55 13 -69
34 -37 11 17 13 42 9 96 -3 39 -9 72 -14 72 -4 0 -20 11 -35 25 -33 31 -44 32
-44 3z"/>
<path d="M2571 3590 c-17 -10 -5 -30 18 -30 10 0 24 -7 31 -15 14 -17 30 -20
30 -5 0 6 -7 10 -15 10 -8 0 -15 7 -15 15 0 19 -32 36 -49 25z"/>
<path d="M4060 3533 c0 -5 4 -14 9 -21 7 -11 9 -11 14 1 3 8 3 18 0 21 -9 8
-23 7 -23 -1z"/>
<path d="M2445 3510 c-9 -15 14 -40 36 -40 24 0 33 18 19 35 -14 17 -46 20
-55 5z"/>
<path d="M3734 3478 c-8 -36 -14 -43 -41 -50 -18 -5 -33 -14 -33 -21 0 -9 20
-12 70 -11 77 1 90 7 72 32 -6 9 -20 34 -29 55 -10 20 -21 37 -24 37 -3 0 -10
-19 -15 -42z"/>
<path d="M2060 3481 c-25 -10 -78 -29 -119 -42 -81 -26 -106 -49 -80 -74 15
-16 163 -75 187 -75 31 0 6 32 -48 61 -63 33 -72 44 -42 53 9 3 42 12 73 21
60 17 133 75 93 75 -10 -1 -39 -9 -64 -19z"/>
<path d="M2227 3454 c-13 -13 -7 -24 14 -24 11 0 19 5 17 12 -5 14 -22 21 -31
12z"/>
<path d="M2120 3439 c-13 -8 -12 -12 5 -24 16 -13 18 -19 7 -35 -24 -39 -11
-77 22 -64 32 12 39 42 16 73 -11 16 -20 34 -20 39 0 17 -14 22 -30 11z"/>
<path d="M4910 3443 c0 -5 4 -15 10 -23 11 -18 25 -7 17 15 -6 15 -27 21 -27
8z"/>
<path d="M3430 3420 c0 -5 7 -10 16 -10 8 0 12 5 9 10 -3 6 -10 10 -16 10 -5
0 -9 -4 -9 -10z"/>
<path d="M5053 3356 c-12 -11 -35 -31 -52 -44 -17 -13 -31 -30 -31 -38 0 -8
-4 -14 -10 -14 -5 0 -7 6 -4 13 2 7 -2 29 -10 48 l-15 34 -1 -30 c0 -17 -7
-41 -16 -53 -14 -21 -14 -22 5 -22 26 0 26 -16 1 -57 l-20 -33 22 0 c19 0 20
-4 15 -45 -4 -24 -2 -47 2 -50 12 -7 25 49 22 96 -1 30 6 46 39 84 23 26 48
58 57 71 8 13 22 24 29 24 18 0 18 26 1 33 -7 3 -22 -5 -34 -17z"/>
<path d="M2220 3330 c0 -5 7 -10 16 -10 8 0 12 5 9 10 -3 6 -10 10 -16 10 -5
0 -9 -4 -9 -10z"/>
<path d="M4860 3240 c-8 -5 -11 -12 -7 -16 4 -4 13 -2 19 4 15 15 7 24 -12 12z"/>
<path d="M3410 3212 c0 -5 7 -15 16 -22 12 -11 18 -10 32 3 15 16 15 17 0 17
-9 0 -23 3 -32 6 -9 3 -16 2 -16 -4z"/>
<path d="M4805 3209 c-11 -17 0 -20 21 -4 17 13 17 14 2 15 -9 0 -20 -5 -23
-11z"/>
<path d="M1619 3188 c10 -27 41 -37 41 -14 0 8 -9 20 -19 26 -28 15 -31 13
-22 -12z"/>
<path d="M3502 3181 c-20 -16 -31 -51 -17 -51 17 0 55 35 55 51 0 24 -11 24
-38 0z"/>
<path d="M4416 3181 c-8 -12 21 -34 33 -27 6 4 8 13 4 21 -6 17 -29 20 -37 6z"/>
<path d="M4645 3171 c-17 -7 -16 -9 13 -16 37 -8 55 1 32 15 -17 11 -18 11
-45 1z"/>
<path d="M4480 3146 c0 -18 147 -76 195 -76 l38 0 -44 23 c-24 13 -48 33 -54
45 -9 19 -18 22 -72 22 -47 0 -63 -4 -63 -14z"/>
<path d="M4859 3133 c-13 -15 -12 -15 9 -4 23 12 28 21 13 21 -5 0 -15 -7 -22
-17z"/>
<path d="M1532 3116 c1 -10 8 -17 13 -17 15 1 12 24 -3 29 -9 3 -13 -2 -10
-12z"/>
<path d="M1060 3070 c0 -5 5 -10 10 -10 6 0 10 5 10 10 0 6 -4 10 -10 10 -5 0
-10 -4 -10 -10z"/>
<path d="M3598 3073 c-37 -9 -16 -23 36 -23 30 0 58 -4 61 -10 9 -15 35 -12
35 3 0 12 -86 40 -108 36 -4 -1 -15 -3 -24 -6z"/>
<path d="M5180 3051 c0 -6 5 -13 10 -16 6 -3 10 1 10 9 0 9 -4 16 -10 16 -5 0
-10 -4 -10 -9z"/>
<path d="M1120 3040 c0 -5 21 -10 48 -9 38 1 42 2 22 9 -36 12 -70 12 -70 0z"/>
<path d="M2085 3020 c-3 -5 1 -10 10 -10 9 0 13 5 10 10 -3 6 -8 10 -10 10 -2
0 -7 -4 -10 -10z"/>
<path d="M5340 3010 c-12 -8 -9 -10 13 -10 16 0 26 4 22 10 -8 12 -16 12 -35
0z"/>
<path d="M3527 3003 c-13 -13 -7 -21 41 -52 26 -16 60 -46 75 -66 33 -42 49
-44 76 -9 12 15 36 29 53 33 55 11 40 33 -47 68 -76 31 -180 44 -198 26z"/>
<path d="M1916 2975 c5 -19 2 -25 -10 -25 -19 0 -22 -36 -3 -43 6 -2 28 9 47
24 19 16 53 36 75 46 34 15 37 18 17 21 -12 2 -38 -2 -58 -8 -26 -9 -39 -9
-47 -1 -18 18 -28 12 -21 -14z"/>
<path d="M4460 2990 c0 -9 37 -47 135 -139 17 -16 45 -36 63 -45 18 -9 32 -23
32 -32 0 -8 8 -18 18 -21 9 -4 23 -15 30 -25 17 -23 31 -22 62 2 14 11 34 20
45 20 17 0 17 2 5 10 -8 5 -26 10 -39 10 -13 0 -40 13 -60 28 -80 63 -291 202
-291 192z"/>
<path d="M1329 2961 c-16 -13 -21 -23 -14 -30 7 -6 22 0 45 19 31 26 32 29 14
30 -12 0 -32 -9 -45 -19z"/>
<path d="M3330 2969 c0 -5 5 -7 10 -4 6 3 10 8 10 11 0 2 -4 4 -10 4 -5 0 -10
-5 -10 -11z"/>
<path d="M3436 2954 c-23 -22 -20 -37 7 -30 12 3 28 6 35 6 18 0 15 27 -4 34
-21 8 -20 8 -38 -10z"/>
<path d="M3262 2948 c-7 -7 -12 -20 -12 -29 0 -17 82 -99 99 -99 22 0 19 19
-9 49 -31 32 -38 57 -18 63 19 7 -1 28 -26 28 -12 0 -27 -5 -34 -12z"/>
<path d="M2877 2939 c-90 -13 -267 -84 -267 -108 0 -3 -14 -22 -32 -41 -18
-19 -31 -39 -29 -45 1 -5 4 -21 6 -35 1 -14 3 -28 4 -32 3 -22 31 -3 44 31 21
53 81 109 171 162 33 20 154 58 171 54 11 -2 36 -6 56 -10 20 -3 47 -14 59
-25 24 -21 45 -26 54 -12 10 16 -13 35 -65 53 -57 20 -81 21 -172 8z"/>
<path d="M1610 2930 c0 -5 4 -10 9 -10 6 0 13 5 16 10 3 6 -1 10 -9 10 -9 0
-16 -4 -16 -10z"/>
<path d="M3540 2912 c6 -13 14 -21 18 -18 3 4 -2 14 -12 24 -18 16 -18 16 -6
-6z"/>
<path d="M3536 2850 c-21 -24 -34 -30 -65 -30 -41 0 -62 -14 -37 -23 45 -17
146 24 146 59 0 25 -18 23 -44 -6z"/>
<path d="M1305 2840 c-13 -42 22 -53 65 -20 l25 19 -28 10 c-41 16 -55 14 -62
-9z"/>
<path d="M1633 2853 c-14 -5 -18 -33 -5 -33 10 0 32 22 32 32 0 9 -8 9 -27 1z"/>
<path d="M2900 2851 c0 -6 14 -14 30 -18 33 -6 77 -51 86 -89 4 -15 0 -34 -10
-49 -14 -21 -14 -28 -4 -45 11 -17 10 -22 -2 -30 -10 -7 -18 -5 -26 5 -17 23
-42 18 -70 -12 -20 -22 -29 -25 -42 -16 -24 15 -21 37 6 41 28 4 39 25 43 82
4 43 3 45 -25 48 -35 4 -101 -20 -146 -53 -47 -34 -56 -31 -31 11 24 41 25 44
10 44 -23 0 -89 -62 -89 -83 0 -22 30 -109 56 -160 8 -16 14 -34 14 -42 0 -7
12 -33 26 -59 l26 -47 47 7 c25 4 69 15 96 25 28 11 58 19 67 19 27 0 179 91
209 126 16 19 33 64 44 116 3 14 12 28 20 30 10 2 12 7 5 18 -8 13 -11 13 -19
1 -13 -21 -33 -2 -27 25 6 24 -7 33 -19 14 -10 -17 -22 -11 -29 13 l-7 22 -9
-23 c-5 -13 -8 -51 -6 -85 5 -76 -1 -107 -22 -107 -8 0 -41 -25 -74 -56 -57
-54 -59 -55 -115 -54 -32 0 -71 -2 -88 -5 -25 -5 -37 0 -72 29 -41 36 -45 46
-59 136 l-6 45 22 -23 c23 -25 40 -21 40 9 0 42 113 80 127 42 7 -18 -47 -73
-72 -73 -19 0 -19 -9 2 -32 15 -17 15 -18 -17 -11 l-34 6 20 -34 c30 -51 63
-64 127 -48 42 10 64 24 117 75 62 60 65 65 64 108 -1 50 -36 114 -79 142 -31
20 -105 31 -105 15z"/>
<path d="M3710 2810 c0 -11 7 -20 15 -20 8 0 15 9 15 20 0 11 -7 20 -15 20 -8
0 -15 -9 -15 -20z"/>
<path d="M3631 2784 c-14 -14 -36 -24 -52 -24 -27 0 -47 -15 -35 -27 3 -4 31
-1 61 6 43 10 59 10 70 1 8 -6 19 -9 25 -5 15 9 12 45 -4 45 -8 0 -16 7 -20
15 -7 20 -16 18 -45 -11z"/>
<path d="M4570 2796 c0 -8 5 -18 10 -21 6 -3 10 -19 10 -36 0 -38 15 -37 34 3
20 39 20 38 -4 38 -11 0 -20 7 -20 15 0 8 -7 15 -15 15 -8 0 -15 -6 -15 -14z"/>
<path d="M1982 2778 c5 -32 28 -35 28 -4 0 17 -5 26 -16 26 -10 0 -14 -7 -12
-22z"/>
<path d="M1640 2750 c0 -5 6 -10 14 -10 8 0 18 5 21 10 3 6 -3 10 -14 10 -12
0 -21 -4 -21 -10z"/>
<path d="M4657 2732 c-22 -24 -21 -34 4 -66 15 -19 19 -34 14 -55 -3 -17 -2
-32 4 -36 7 -4 11 4 11 19 0 14 4 27 9 31 11 6 8 71 -3 82 -3 3 -6 15 -6 25 0
23 -12 23 -33 0z"/>
<path d="M3450 2720 c-9 -6 -10 -10 -3 -10 6 0 15 5 18 10 8 12 4 12 -15 0z"/>
<path d="M2290 2695 c-17 -21 -6 -32 54 -49 30 -9 73 -32 96 -51 24 -20 47
-34 52 -33 25 9 6 26 -66 64 -44 22 -86 50 -94 62 -17 26 -25 27 -42 7z"/>
<path d="M2460 2686 c0 -2 7 -9 15 -16 9 -7 15 -8 15 -2 0 5 -7 12 -15 16 -8
3 -15 4 -15 2z"/>
<path d="M3585 2679 c-90 -16 -256 -65 -253 -74 5 -15 44 -11 153 17 55 15
118 30 139 35 22 4 41 14 44 21 4 14 -10 14 -83 1z"/>
<path d="M3262 2669 c2 -7 10 -15 17 -17 8 -3 12 1 9 9 -2 7 -10 15 -17 17 -8
3 -12 -1 -9 -9z"/>
<path d="M5387 2674 c-4 -4 -7 -15 -7 -25 0 -25 -27 -49 -48 -42 -14 6 -15 4
-5 -9 11 -12 9 -19 -7 -38 -24 -27 -18 -40 18 -40 22 0 31 7 45 40 9 22 22 40
28 40 13 0 8 72 -7 77 -5 2 -13 0 -17 -3z"/>
<path d="M2591 2624 c0 -11 3 -14 6 -6 3 7 2 16 -1 19 -3 4 -6 -2 -5 -13z"/>
<path d="M4590 2626 c0 -4 7 -30 16 -57 12 -36 21 -49 31 -45 8 3 19 6 24 6
15 0 10 28 -7 42 -9 7 -27 24 -40 37 -13 13 -24 21 -24 17z"/>
<path d="M3243 2608 c-23 -30 -24 -41 -2 -21 12 12 20 25 17 28 -3 3 -10 0
-15 -7z"/>
<path d="M5505 2597 c-6 -13 -14 -17 -31 -13 -21 6 -24 3 -24 -24 0 -16 -5
-30 -11 -30 -16 0 -48 -42 -49 -62 0 -10 4 -18 10 -18 14 0 60 49 60 65 0 8 6
15 14 15 18 0 48 47 43 68 -4 15 -5 15 -12 -1z"/>
<path d="M1575 2544 c-19 -45 -19 -58 -1 -73 18 -15 22 -8 31 50 9 60 -9 73
-30 23z"/>
<path d="M3266 2539 c-38 -36 -27 -48 22 -24 29 14 38 24 34 37 -6 25 -22 21
-56 -13z"/>
<path d="M4721 2556 l-24 -13 31 -11 c34 -12 46 -4 36 22 -7 19 -12 19 -43 2z"/>
<path d="M5001 2544 c-35 -29 -40 -54 -12 -61 11 -3 32 -23 47 -44 21 -31 25
-42 15 -52 -10 -9 -17 -6 -33 16 -19 26 -48 37 -48 17 0 -10 7 -17 76 -81 21
-21 64 -64 94 -98 30 -33 58 -61 63 -61 4 0 7 9 7 20 0 11 -6 20 -14 20 -19 0
-28 40 -10 47 22 8 44 -5 44 -27 0 -13 7 -20 20 -20 26 0 25 14 -1 39 -16 15
-19 26 -14 50 8 38 -18 54 -40 25 -14 -19 -14 -19 -15 0 0 11 -10 30 -21 43
-20 20 -20 23 -5 29 16 6 23 44 7 44 -5 0 -21 -7 -37 -15 -32 -16 -39 -12 -48
26 -8 35 2 42 32 23 17 -11 27 -13 35 -5 15 15 27 14 27 -4 0 -17 35 -21 45
-5 3 6 23 19 43 30 l37 19 -32 1 c-17 0 -35 5 -38 10 -5 8 -11 7 -20 0 -8 -7
-19 -9 -25 -5 -6 4 -17 2 -24 -4 -20 -17 -84 -1 -105 26 l-19 23 -31 -26z
m134 -184 c9 -16 20 -30 25 -30 6 0 10 -13 10 -30 0 -41 -36 -43 -46 -3 -4 15
-16 35 -27 44 -13 10 -18 22 -14 32 10 26 35 20 52 -13z"/>
<path d="M5515 2518 c12 -63 36 -127 52 -140 15 -12 16 -9 10 32 -7 53 -43
140 -58 140 -7 0 -8 -13 -4 -32z"/>
<path d="M1070 2496 c0 -11 9 -16 26 -16 31 0 28 23 -4 28 -15 2 -22 -2 -22
-12z"/>
<path d="M4596 2463 c3 -27 8 -54 10 -61 7 -22 21 -4 29 34 5 27 2 41 -11 55
-27 30 -34 23 -28 -28z"/>
<path d="M2530 2491 c0 -6 4 -13 10 -16 6 -3 7 1 4 9 -7 18 -14 21 -14 7z"/>
<path d="M5315 2480 c-3 -6 -19 -10 -35 -10 -38 0 -42 -10 -18 -40 l20 -25 18
23 c22 27 36 28 50 2 12 -23 26 -26 33 -7 6 17 -59 71 -68 57z"/>
<path d="M2076 2439 c-50 -44 -56 -63 -9 -31 15 10 40 27 56 36 15 9 27 21 27
26 0 21 -29 8 -74 -31z"/>
<path d="M1430 2462 c0 -12 19 -26 26 -19 2 2 -2 10 -11 17 -9 8 -15 8 -15 2z"/>
<path d="M1862 2458 c-18 -18 -15 -46 8 -65 11 -10 20 -23 20 -30 0 -6 5 -15
10 -18 15 -9 1 96 -14 113 -9 9 -14 10 -24 0z"/>
<path d="M4698 2443 c-14 -16 -28 -36 -31 -45 -4 -10 -11 -18 -17 -18 -17 0
-12 -57 6 -64 27 -10 34 -7 34 18 0 29 24 40 44 21 9 -10 25 -13 44 -9 38 8
60 -23 40 -55 -10 -17 -9 -23 6 -40 27 -30 39 -26 32 10 -5 24 -3 29 7 22 18
-15 47 -23 47 -15 0 4 -20 30 -44 56 -24 27 -49 66 -55 87 -13 43 -25 49 -41
19 -15 -28 -43 -15 -36 16 8 32 -4 30 -36 -3z"/>
<path d="M1020 2432 c0 -15 22 -29 56 -36 32 -7 154 -91 154 -106 0 -14 100
-51 177 -66 84 -16 163 -18 163 -5 0 9 -18 14 -140 35 -41 7 -94 22 -117 34
-23 12 -50 22 -58 22 -9 0 -22 13 -28 29 -10 27 -77 66 -147 86 -14 3 -33 9
-42 11 -10 3 -18 1 -18 -4z"/>
<path d="M1230 2434 c0 -3 8 -18 18 -32 10 -15 22 -35 25 -44 4 -10 15 -18 25
-18 11 0 25 -7 32 -15 10 -12 16 -12 26 -4 20 16 59 3 89 -29 27 -29 35 -12
10 22 -8 11 -15 27 -15 37 0 19 -58 33 -77 17 -12 -10 -77 25 -102 56 -13 16
-31 22 -31 10z"/>
<path d="M5196 2411 c-15 -17 -16 -23 -6 -36 7 -8 16 -15 20 -15 13 0 20 29
12 51 l-8 20 -18 -20z"/>
<path d="M1580 2395 c0 -17 5 -25 13 -22 6 2 12 12 12 22 0 10 -6 20 -12 23
-8 2 -13 -6 -13 -23z"/>
<path d="M1475 2400 c3 -5 8 -10 11 -10 2 0 4 5 4 10 0 6 -5 10 -11 10 -5 0
-7 -4 -4 -10z"/>
<path d="M2157 2396 c-40 -15 -147 -112 -147 -133 0 -31 58 -95 119 -132 74
-44 177 -67 218 -48 36 16 27 24 -36 30 -85 9 -271 103 -271 137 0 21 28 60
43 60 7 1 21 15 32 33 16 26 30 34 69 41 90 16 228 -35 242 -90 8 -30 0 -40
-48 -65 -39 -20 -46 -20 -115 -9 -86 15 -113 30 -97 56 19 32 41 40 74 27 31
-12 39 -6 18 15 -24 24 -148 2 -148 -27 0 -24 82 -110 124 -130 44 -20 50 -21
102 -7 70 18 89 35 110 98 16 48 15 50 -8 83 -13 20 -40 42 -63 51 -55 23
-170 28 -218 10z"/>
<path d="M3489 2390 l-24 -20 28 11 c15 7 27 16 27 21 0 12 -5 10 -31 -12z"/>
<path d="M2905 2370 c-16 -16 -25 -33 -21 -37 11 -11 80 32 84 51 6 27 -32 19
-63 -14z"/>
<path d="M920 2382 c0 -10 86 -82 98 -82 5 0 17 -9 27 -20 10 -11 27 -20 38
-20 19 0 20 1 2 20 -10 11 -23 20 -30 20 -7 0 -20 9 -30 20 -10 11 -24 20 -31
20 -8 0 -21 11 -30 25 -15 23 -44 35 -44 17z"/>
<path d="M1665 2380 c-7 -12 39 -43 60 -38 14 3 14 5 0 26 -16 23 -49 30 -60
12z"/>
<path d="M5316 2375 c-10 -8 -24 -16 -30 -18 -8 -3 -7 -8 1 -18 10 -10 17 -8
38 11 38 36 31 55 -9 25z"/>
<path d="M3543 2343 c-18 -7 -16 -58 2 -73 20 -17 32 -5 15 15 -10 12 -10 21
-2 40 11 25 9 28 -15 18z"/>
<path d="M3321 2315 c-23 -14 -49 -25 -57 -25 -12 0 -110 -45 -122 -55 -2 -2
8 -21 22 -42 14 -20 26 -43 26 -49 0 -7 11 -19 24 -28 14 -8 37 -38 51 -65 15
-27 34 -52 41 -55 23 -9 16 8 -29 75 -38 56 -44 70 -42 112 1 26 4 49 6 50 2
1 16 13 31 25 22 20 29 22 49 12 20 -11 25 -10 41 10 18 22 25 60 11 60 -5 0
-28 -11 -52 -25z"/>
<path d="M1584 2308 c3 -13 6 -29 6 -36 0 -9 5 -10 18 -3 9 5 31 7 47 5 17 -2
23 -1 15 3 -8 3 -29 17 -46 30 -39 29 -48 29 -40 1z"/>
<path d="M2322 2305 c12 -26 48 -35 48 -12 0 18 -21 37 -42 37 -15 0 -16 -3
-6 -25z"/>
<path d="M2640 2310 c0 -5 5 -10 11 -10 5 0 7 5 4 10 -3 6 -8 10 -11 10 -2 0
-4 -4 -4 -10z"/>
<path d="M2730 2311 c0 -14 18 -23 31 -15 8 4 7 9 -2 15 -18 11 -29 11 -29 0z"/>
<path d="M1800 2301 c0 -13 27 -21 45 -15 8 4 12 10 9 15 -7 12 -54 12 -54 0z"/>
<path d="M3426 2299 c-4 -8 -2 -26 3 -40 15 -38 86 -109 110 -109 43 0 17 43
-42 68 -18 8 -35 27 -46 54 -14 31 -21 39 -25 27z"/>
<path d="M4605 2300 c-8 -14 3 -30 21 -30 8 0 14 9 14 20 0 21 -24 28 -35 10z"/>
<path d="M4733 2283 c-19 -7 -16 -23 5 -23 10 0 24 -6 31 -12 10 -11 10 -8 0
15 -13 28 -15 29 -36 20z"/>
<path d="M1690 2276 c0 -2 7 -6 15 -10 8 -3 15 -1 15 4 0 6 -7 10 -15 10 -8 0
-15 -2 -15 -4z"/>
<path d="M4517 2273 c-3 -5 -8 -24 -11 -43 -7 -33 -6 -34 9 -16 8 11 15 30 15
43 0 23 -5 29 -13 16z"/>
<path d="M2797 2259 c-11 -6 -32 -9 -47 -6 -40 8 -44 -3 -13 -35 34 -35 44
-35 71 2 33 45 28 62 -11 39z"/>
<path d="M1110 2256 c0 -13 35 -36 54 -36 13 0 29 -7 36 -15 14 -17 50 -21 50
-5 0 12 -33 30 -55 30 -9 0 -23 7 -31 15 -14 13 -54 21 -54 11z"/>
<path d="M4580 2224 c-7 -21 -29 -56 -50 -78 -48 -53 -67 -141 -22 -103 13 11
14 9 1 -11 -12 -20 -12 -24 1 -32 8 -5 26 -10 39 -10 18 0 22 4 16 18 -8 19
-8 19 0 86 7 61 12 68 38 60 44 -13 48 -44 11 -81 -26 -26 -26 -53 0 -53 18 0
56 64 56 95 0 13 5 27 11 30 5 4 15 18 20 32 5 14 18 27 30 30 19 5 19 6 2 17
-10 7 -31 17 -46 24 -26 11 -28 11 -25 -9 4 -32 -18 -34 -46 -4 l-24 26 -12
-37z"/>
<path d="M4920 2241 c0 -10 7 -21 15 -25 8 -3 15 -14 15 -24 0 -26 11 -34 27
-21 21 18 15 44 -17 67 -36 27 -40 27 -40 3z"/>
<path d="M1610 2225 c0 -8 6 -15 13 -15 6 0 30 -3 51 -7 28 -4 37 -3 32 5 -4
7 -18 12 -31 12 -13 0 -27 5 -30 10 -10 15 -35 12 -35 -5z"/>
<path d="M1730 2220 c0 -14 26 -23 41 -15 8 6 7 10 -2 16 -19 12 -39 11 -39
-1z"/>
<path d="M1914 2209 c-14 -16 -16 -24 -7 -38 7 -10 9 -28 7 -39 -4 -14 3 -25
23 -39 49 -34 52 -35 69 -8 16 24 16 27 -4 48 -11 12 -31 39 -45 59 -24 37
-25 37 -43 17z"/>
<path d="M2975 2210 c-3 -5 -2 -10 4 -10 5 0 13 5 16 10 3 6 2 10 -4 10 -5 0
-13 -4 -16 -10z"/>
<path d="M4755 2183 c-19 -20 -35 -41 -35 -48 0 -6 -11 -22 -25 -35 -14 -13
-25 -32 -25 -43 0 -19 1 -19 19 -3 16 14 25 15 66 6 26 -6 50 -9 52 -6 3 3 -5
21 -17 40 -19 32 -20 39 -8 66 7 17 21 33 30 36 24 7 23 24 -2 24 -10 0 -35
-16 -55 -37z"/>
<path d="M4863 2197 c-22 -11 -43 -46 -43 -71 0 -7 9 -21 20 -31 12 -11 18
-25 15 -36 -9 -26 12 -33 32 -9 25 29 42 25 59 -15 8 -19 20 -36 27 -37 6 0
17 -2 24 -2 6 -1 19 -8 30 -17 38 -33 49 -35 30 -5 -16 24 -17 32 -7 57 15 36
39 37 70 4 21 -22 22 -28 11 -51 -15 -34 -2 -49 34 -40 41 10 41 32 1 83 -29
38 -35 53 -31 75 5 23 3 28 -12 28 -10 0 -30 14 -45 30 -32 37 -41 37 -63 4
-16 -25 -16 -27 4 -48 26 -27 26 -35 0 -65 l-20 -24 -27 20 c-19 14 -29 32
-32 59 -5 35 -8 39 -35 39 -33 0 -48 30 -21 41 9 3 16 10 16 15 0 11 -8 10
-37 -4z"/>
<path d="M1275 2190 c3 -5 10 -10 16 -10 5 0 9 5 9 10 0 6 -7 10 -16 10 -8 0
-12 -4 -9 -10z"/>
<path d="M2650 2175 c-27 -29 -25 -32 18 -41 34 -7 38 -1 26 44 -8 28 -15 28
-44 -3z"/>
<path d="M2898 2183 c7 -3 16 -2 19 1 4 3 -2 6 -13 5 -11 0 -14 -3 -6 -6z"/>
<path d="M1810 2150 c0 -5 5 -10 10 -10 6 0 10 5 10 10 0 6 -4 10 -10 10 -5 0
-10 -4 -10 -10z"/>
<path d="M2790 2150 c0 -5 6 -10 14 -10 8 0 18 5 21 10 3 6 -3 10 -14 10 -12
0 -21 -4 -21 -10z"/>
<path d="M3400 2151 c0 -15 92 -71 117 -71 36 0 27 18 -16 30 -21 5 -50 19
-64 30 -28 22 -37 25 -37 11z"/>
<path d="M1630 2141 c0 -11 26 -22 34 -14 12 12 5 23 -14 23 -11 0 -20 -4 -20
-9z"/>
<path d="M1722 2138 c5 -15 37 -18 41 -3 1 6 -9 12 -22 13 -16 3 -22 -1 -19
-10z"/>
<path d="M2066 2104 c-11 -28 20 -60 76 -79 29 -9 71 -28 93 -40 22 -13 59
-27 82 -31 41 -6 46 -4 114 51 38 31 68 59 66 61 -2 3 -30 -9 -62 -26 -59 -31
-85 -37 -85 -20 0 6 -17 10 -38 10 -41 0 -141 36 -196 69 -40 25 -42 25 -50 5z"/>
<path d="M2832 2100 c-18 -4 -34 -9 -35 -11 -2 -2 -19 -23 -40 -47 -50 -57
-47 -72 5 -22 24 22 53 43 66 47 47 11 110 -7 162 -48 72 -57 136 -52 86 8
-54 65 -154 94 -244 73z"/>
<path d="M5213 2092 c21 -23 21 -36 1 -67 -9 -15 -12 -29 -7 -37 4 -7 8 -22 8
-33 0 -15 7 -20 26 -20 14 0 33 -6 42 -14 13 -10 20 -11 31 -2 8 7 20 11 28
10 29 -3 38 2 38 22 0 20 -24 48 -42 49 -3 0 -9 -13 -13 -30 -8 -36 -25 -38
-65 -8 -35 26 -38 42 -9 62 17 11 27 12 45 4 27 -13 37 -8 29 13 -5 14 -101
69 -119 69 -5 0 -2 -8 7 -18z"/>
<path d="M1825 2080 c-7 -12 12 -40 26 -40 5 0 9 11 9 25 0 25 -23 35 -35 15z"/>
<path d="M1906 2046 c3 -9 11 -16 16 -16 13 0 5 23 -10 28 -7 2 -10 -2 -6 -12z"/>
<path d="M2657 2042 c-25 -16 -38 -52 -18 -52 11 0 55 59 49 65 -2 2 -16 -4
-31 -13z"/>
<path d="M3441 2001 c25 -42 48 -51 69 -26 15 18 5 35 -23 35 -13 0 -33 7 -46
16 l-23 17 23 -42z"/>
<path d="M1864 2014 c3 -9 9 -27 12 -40 6 -23 34 -35 34 -15 0 23 -20 59 -35
65 -13 5 -16 2 -11 -10z"/>
<path d="M1580 2004 c0 -8 5 -12 10 -9 6 3 10 10 10 16 0 5 -4 9 -10 9 -5 0
-10 -7 -10 -16z"/>
<path d="M2482 1987 c-41 -42 -40 -48 3 -28 24 11 34 23 35 39 0 12 -1 22 -3
22 -2 0 -17 -15 -35 -33z"/>
<path d="M2805 2010 c-3 -5 3 -10 14 -10 12 0 21 5 21 10 0 6 -6 10 -14 10 -8
0 -18 -4 -21 -10z"/>
<path d="M1190 1991 c0 -8 52 -23 59 -16 1 2 0 8 -4 14 -8 13 -55 15 -55 2z"/>
<path d="M4204 1989 c-3 -6 -1 -16 5 -22 8 -8 17 -5 33 11 l22 22 -26 0 c-15
0 -30 -5 -34 -11z"/>
<path d="M4310 1964 c0 -9 5 -14 12 -12 18 6 21 28 4 28 -9 0 -16 -7 -16 -16z"/>
<path d="M5412 1948 c-16 -16 -15 -38 2 -38 18 0 39 27 31 40 -8 13 -18 13
-33 -2z"/>
<path d="M3937 1933 c-14 -13 -6 -41 13 -46 17 -4 20 0 20 24 0 27 -17 39 -33
22z"/>
<path d="M3830 1920 c-25 -7 -25 -8 11 -23 20 -9 39 -23 42 -32 9 -21 27 -19
27 3 0 18 -35 63 -48 61 -4 -1 -18 -4 -32 -9z"/>
<path d="M4010 1918 c1 -7 14 -29 30 -48 39 -45 38 -58 -7 -65 -21 -3 -56 -15
-79 -27 -28 -14 -50 -19 -68 -14 -20 5 -35 0 -59 -17 -18 -13 -40 -27 -49 -30
-19 -7 -24 -22 -9 -31 5 -3 14 1 21 9 8 9 21 13 35 9 13 -3 26 -1 29 5 4 6 19
11 33 11 13 0 37 6 51 14 15 8 53 26 85 40 31 14 57 30 57 37 0 8 12 10 41 5
31 -5 46 -2 64 12 27 21 23 32 -11 32 -13 0 -26 5 -29 10 -3 6 -15 10 -25 10
-11 0 -36 11 -56 25 -41 28 -54 31 -54 13z"/>
<path d="M1215 1901 c-6 -11 9 -23 19 -14 9 9 7 23 -3 23 -6 0 -12 -4 -16 -9z"/>
<path d="M3595 1890 c3 -5 11 -10 16 -10 6 0 7 5 4 10 -3 6 -11 10 -16 10 -6
0 -7 -4 -4 -10z"/>
<path d="M5081 1871 c-17 -30 -14 -54 5 -47 9 3 18 6 20 6 8 0 4 49 -5 55 -6
3 -15 -3 -20 -14z"/>
<path d="M1810 1870 c0 -5 5 -10 10 -10 6 0 10 5 10 10 0 6 -4 10 -10 10 -5 0
-10 -4 -10 -10z"/>
<path d="M3910 1831 c0 -18 17 -20 36 -6 18 14 18 14 -8 15 -16 0 -28 -4 -28
-9z"/>
<path d="M1540 1811 c0 -12 51 -73 57 -68 6 7 -17 61 -30 69 -16 10 -27 10
-27 -1z"/>
<path d="M2950 1800 c0 -5 5 -10 10 -10 6 0 10 5 10 10 0 6 -4 10 -10 10 -5 0
-10 -4 -10 -10z"/>
<path d="M2853 1793 c-33 -6 -28 -23 7 -23 20 0 30 5 30 15 0 8 -3 14 -7 14
-5 -1 -18 -4 -30 -6z"/>
<path d="M3666 1784 c-9 -23 -8 -24 19 -24 18 0 25 5 25 20 0 24 -35 28 -44 4z"/>
<path d="M3106 1783 c-11 -11 -6 -23 9 -23 8 0 15 4 15 9 0 13 -16 22 -24 14z"/>
<path d="M4888 1766 c-21 -20 -23 -32 -7 -42 16 -10 31 10 27 37 -3 22 -4 22
-20 5z"/>
<path d="M2775 1750 c3 -5 8 -10 11 -10 2 0 4 5 4 10 0 6 -5 10 -11 10 -5 0
-7 -4 -4 -10z"/>
<path d="M1513 1714 c5 -32 4 -36 -13 -31 -11 3 -21 -1 -24 -10 -10 -26 12
-50 60 -64 72 -22 149 -108 97 -109 -14 -1 -12 -6 10 -25 28 -25 57 -33 57
-16 0 5 -6 14 -14 20 -8 7 -12 21 -9 31 3 12 -7 39 -26 68 -17 27 -31 54 -31
61 0 15 -89 111 -103 111 -6 0 -7 -15 -4 -36z"/>
<path d="M3408 1644 c-25 -13 -63 -44 -84 -70 -36 -44 -37 -47 -23 -72 15 -26
30 -29 67 -17 24 8 2 25 -33 25 -29 0 -32 3 -28 21 3 11 13 24 22 27 32 13
141 85 141 93 0 18 -17 16 -62 -7z"/>
<path d="M3670 1650 c0 -5 7 -10 15 -10 8 0 15 5 15 10 0 6 -7 10 -15 10 -8 0
-15 -4 -15 -10z"/>
<path d="M4980 1592 c0 -6 9 -12 20 -15 11 -3 20 -3 20 -1 0 2 -9 8 -20 14
-11 6 -20 7 -20 2z"/>
<path d="M4925 1561 c-7 -12 12 -24 25 -16 11 7 4 25 -10 25 -5 0 -11 -4 -15
-9z"/>
<path d="M4990 1514 c0 -9 32 -33 44 -34 5 0 1 9 -9 20 -18 20 -35 26 -35 14z"/>
<path d="M3245 1449 c-4 -6 0 -18 9 -27 15 -15 16 -15 16 5 0 25 -15 38 -25
22z"/>
<path d="M1813 1394 c-8 -21 13 -42 28 -27 13 13 5 43 -11 43 -6 0 -13 -7 -17
-16z"/>
<path d="M2005 1190 c3 -5 8 -10 11 -10 2 0 4 5 4 10 0 6 -5 10 -11 10 -5 0
-7 -4 -4 -10z"/>
<path d="M2350 1073 c1 -14 27 -43 39 -43 17 0 13 21 -6 36 -20 15 -33 18 -33
7z"/>
<path d="M2435 949 c-11 -17 1 -21 15 -4 8 9 8 15 2 15 -6 0 -14 -5 -17 -11z"/>
</g>
</svg>
